<?xml version="1.0" encoding="UTF-8" standalone="no"?>
<!-- Created with Inkscape (http://www.inkscape.org/) -->

<svg
   version="1.1"
   id="svg1"
   width="372.28"
   height="57.453335"
   viewBox="0 0 372.28 57.453335"
   sodipodi:docname="HSLU_Logo_DE_Schwarz_cmyk.eps"
   xmlns:inkscape="http://www.inkscape.org/namespaces/inkscape"
   xmlns:sodipodi="http://sodipodi.sourceforge.net/DTD/sodipodi-0.dtd"
   xmlns="http://www.w3.org/2000/svg"
   xmlns:svg="http://www.w3.org/2000/svg">
  <defs
     id="defs1" />
  <sodipodi:namedview
     id="namedview1"
     pagecolor="#ffffff"
     bordercolor="#000000"
     borderopacity="0.25"
     inkscape:showpageshadow="2"
     inkscape:pageopacity="0.0"
     inkscape:pagecheckerboard="0"
     inkscape:deskcolor="#d1d1d1">
    <inkscape:page
       x="0"
       y="0"
       inkscape:label="1"
       id="page1"
       width="372.28"
       height="57.453335"
       margin="0"
       bleed="0" />
  </sodipodi:namedview>
  <g
     id="g1"
     inkscape:groupmode="layer"
     inkscape:label="1">
    <g
       id="group-R5">
      <path
         id="path2"
         d="m 1194.21,2.83594 c 114.2,0 171.01,59.73826 171.01,179.80106 V 421.008 H 1255.7 V 192.594 c 0,-67.352 -16.98,-93.1213 -61.49,-93.1213 -44.52,0 -61.5,25.7693 -61.5,93.1213 V 421.008 H 1023.19 V 182.637 C 1023.19,62.5742 1080,2.83594 1194.21,2.83594 Z M 737.395,9.86328 H 1000.94 V 88.9297 c 0,10.543 -4.678,15.2263 -15.225,15.2263 H 846.91 V 421.008 H 737.395 V 9.86328 Z M 530.066,2.83594 c 95.469,0 152.864,48.60936 152.864,129.43006 0,56.82 -25.766,91.371 -88.438,117.726 l -55.64,23.43 c -26.938,11.711 -35.137,19.91 -35.137,35.133 0,18.16 18.156,30.457 46.265,30.457 43.93,0 79.653,-21.672 90.782,-21.672 6.445,0 9.961,2.926 12.301,8.785 l 24.593,70.277 c -43.34,21.672 -84.918,31.625 -130.015,31.625 -91.368,0 -151.102,-48.601 -151.102,-120.64 0,-56.227 25.184,-93.125 81.996,-118.301 l 65.59,-29.289 c 21.672,-9.371 30.461,-19.328 30.461,-33.969 0,-22.258 -16.406,-33.3866 -48.613,-33.3866 -50.371,0 -93.711,22.8436 -103.082,22.8436 -6.442,0 -11.715,-4.097 -13.473,-9.957 L 389.508,32.1211 C 442.805,11.6211 484.977,2.83594 530.066,2.83594 Z M 237.242,421.008 V 263.461 H 112.496 V 421.008 H 2.98047 V 9.86328 H 112.496 V 169.168 H 237.242 V 9.86328 h 109.52 V 421.008 h -109.52 v 0"
         style="fill:#231f20;fill-opacity:1;fill-rule:nonzero;stroke:none"
         transform="matrix(0.13333333,0,0,-0.13333333,0,57.453333)" />
      <path
         id="path3"
         d="m 2101.87,9.86328 h 19.79 c 4.81,0 6.68,2.14062 6.68,6.68752 v 86.6482 c 9.1,7.75 22.2,13.371 31.83,13.371 14.17,0 20.59,-8.023 20.59,-25.9411 V 16.8164 c 0,-4.8125 2.14,-6.95312 6.68,-6.95312 h 19.8 c 4.54,0 6.41,2.14062 6.41,6.95312 v 79.4258 c 0,31.8208 -14.71,48.4028 -43.05,48.4028 -15.25,0 -31.02,-5.883 -43.86,-16.582 l -0.27,7.757 c -0.26,4.016 -2.41,5.618 -6.68,5.618 h -17.65 c -4.55,0 -6.69,-2.137 -6.69,-6.684 V 16.2813 c 0,-4.0079 2.41,-6.41802 6.42,-6.41802 z m -92.53,0 h 19.8 c 4.27,0 6.41,2.14062 6.41,6.68752 v 86.1132 c 6.42,7.754 16.58,12.832 25.94,12.832 2.14,0 4.55,-0.266 7.49,-0.531 3.21,-0.539 4.81,0.531 5.35,4.008 l 2.4,19.257 c 0.27,2.137 0,3.477 -1.07,4.543 -1.07,1.071 -4.81,1.872 -8.82,1.872 -12.84,0 -22.73,-5.614 -32.89,-18.719 l -0.27,9.629 c 0,4.281 -2.14,5.883 -6.69,5.883 h -17.38 c -4.82,0 -6.95,-1.875 -6.95,-6.954 V 16.5508 c 0,-4.5469 2.13,-6.68752 6.68,-6.68752 z M 1889.8,89.5586 c 2.41,18.1874 14.45,29.9494 30.22,29.9494 14.71,0 24.61,-10.699 25.14,-27.0041 v -2.9453 h -55.36 z m 32.63,-82.90626 c 16.31,0 33.96,3.21094 45.73,8.55856 3.74,1.875 4.81,4.0079 3.74,8.0274 l -3.74,13.9023 c -0.81,3.2071 -2.94,4.0117 -6.95,2.4063 -11.23,-4.543 -21.66,-6.6836 -33.16,-6.6836 -21.13,0 -36.64,13.9062 -38.78,35.2969 h 79.43 c 6.95,0 8.82,1.6054 8.82,8.0234 v 4.0117 c 0,39.8477 -21.13,64.4497 -55.63,64.4497 -40.11,0 -67.12,-27.543 -67.12,-68.4614 0,-43.0508 25.67,-69.53126 67.66,-69.53126 z m -83.7,27.28126 h -57.77 l 58.83,85.3124 c 2.15,2.938 2.68,5.613 2.68,8.817 v 7.757 c 0,2.942 -1.07,5.618 -6.15,5.618 h -85.85 c -3.47,0 -5.08,-2.137 -5.08,-5.618 v -11.496 c 0,-5.617 1.07,-6.961 6.15,-6.961 h 49.48 l -57.76,-85.0388 c -2.42,-3.4765 -2.68,-5.3437 -2.68,-9.0859 v -6.957 c 0,-3.7383 1.61,-6.41802 6.42,-6.41802 h 91.99 c 3.21,0 5.08,1.87112 5.08,5.08592 v 14.4375 c 0,3.4766 -2.13,4.5469 -5.34,4.5469 z M 1643.77,6.65234 c 14.98,0 29.96,5.89066 43.06,16.58596 l 0.26,-8.0274 c 0.28,-3.7382 2.15,-5.34762 6.42,-5.34762 h 17.93 c 4.8,0 6.68,2.14062 6.68,6.95312 V 135.289 c 0,4.274 -2.14,6.149 -6.96,6.149 h -19.25 c -4.54,0 -6.69,-1.875 -6.69,-6.149 V 48.375 c -9.36,-8.0273 -22.19,-13.6367 -31.55,-13.6367 -13.91,0 -20.06,7.75 -20.06,26.207 v 74.3437 c 0,4.274 -1.87,6.149 -6.68,6.149 h -19 c -4.81,0 -7.21,-2.137 -7.21,-6.149 V 55.3281 c 0,-31.8242 14.71,-48.67576 43.05,-48.67576 z M 1476.9,9.86328 h 96.01 c 4.01,0 6.68,1.60942 6.68,6.41802 v 16.3125 c 0,4.0156 -2.13,6.4218 -6.68,6.4218 h -68.46 V 187.969 c 0,5.347 -1.87,7.222 -6.96,7.222 h -21.66 c -4.28,0 -6.42,-2.406 -6.42,-6.953 V 17.3516 c 0,-5.8789 2.67,-7.48832 7.49,-7.48832 v 0"
         style="fill:#231f20;fill-opacity:1;fill-rule:nonzero;stroke:none"
         transform="matrix(0.13333333,0,0,-0.13333333,0,57.453333)" />
      <path
         id="path4"
         d="m 2701.43,315.367 c 2.41,18.188 14.44,29.957 30.22,29.957 14.71,0 24.6,-10.699 25.14,-27.008 v -2.949 h -55.36 z m 32.63,-82.898 c 16.31,0 33.96,3.211 45.72,8.558 3.75,1.875 4.82,4.008 3.75,8.024 l -3.75,13.906 c -0.8,3.207 -2.93,4.012 -6.95,2.406 -11.22,-4.547 -21.66,-6.683 -33.16,-6.683 -21.13,0 -36.63,13.906 -38.77,35.297 h 79.42 c 6.96,0 8.83,1.605 8.83,8.023 v 4.012 c 0,39.843 -21.13,64.449 -55.63,64.449 -40.11,0 -67.12,-27.543 -67.12,-68.461 0,-43.055 25.67,-69.531 67.66,-69.531 z m -119.81,3.211 h 20.86 c 3.74,0 5.89,2.14 5.89,6.683 v 172.492 c 0,4.809 -2.41,6.153 -6.69,6.153 h -18.99 c -4.28,0 -7.22,-1.606 -7.22,-6.153 V 242.098 c 0,-4.547 2.41,-6.418 6.15,-6.418 z m -112.58,-3.211 c 14.98,0 29.95,5.886 43.05,16.582 l 0.27,-8.024 c 0.27,-3.742 2.14,-5.347 6.42,-5.347 h 17.92 c 4.81,0 6.68,2.14 6.68,6.953 v 118.472 c 0,4.274 -2.14,6.141 -6.95,6.141 h -19.26 c -4.54,0 -6.68,-1.867 -6.68,-6.141 v -86.917 c -9.36,-8.024 -22.2,-13.637 -31.56,-13.637 -13.9,0 -20.06,7.754 -20.06,26.203 v 74.351 c 0,4.274 -1.87,6.141 -6.68,6.141 h -18.99 c -4.81,0 -7.22,-2.133 -7.22,-6.141 v -79.964 c 0,-31.825 14.71,-48.672 43.06,-48.672 z m -185.06,3.211 h 20.86 c 3.75,0 5.88,2.14 5.88,6.683 v 86.649 c 8.56,7.218 21.93,13.371 32.63,13.371 16.31,0 20.32,-11.235 20.32,-25.945 v -74.075 c 0,-4.812 2.14,-6.683 6.95,-6.683 h 19 c 4.81,0 6.95,1.871 6.95,6.683 v 79.696 c 0,29.418 -12.57,48.402 -43.06,48.402 -14.17,0 -31.29,-5.883 -42.79,-15.508 v 59.902 c 0,4.809 -2.4,6.153 -6.68,6.153 h -18.99 c -4.28,0 -7.22,-1.606 -7.22,-6.153 V 242.098 c 0,-4.547 2.41,-6.418 6.15,-6.418 z m -72.47,-3.211 c 15.24,0 27.01,2.406 39.31,8.019 4.01,1.875 4.54,3.481 3.21,8.024 l -3.74,13.375 c -0.81,2.406 -2.68,3.207 -5.89,2.144 -10.96,-4.547 -18.18,-6.152 -28.34,-6.152 -22.2,0 -35.3,16.309 -35.3,44.121 0,27.012 13.64,42.785 36.63,42.785 9.63,0 18.45,-2.137 25.94,-5.879 3.21,-1.875 5.35,-1.074 6.15,2.403 l 3.48,14.445 c 0.81,4.277 0.27,5.879 -2.67,7.223 -10.7,4.808 -23.54,7.484 -36.37,7.484 -41.18,0 -67.13,-27.281 -67.13,-70.07 0,-42.786 23.8,-67.922 64.72,-67.922 z m -134.78,0 c 32.09,0 53.22,16.582 53.22,41.984 0,15.516 -9.37,28.348 -25.68,34.77 l -24.6,9.89 c -9.36,3.75 -12.84,7.489 -12.84,13.907 0,7.484 6.69,12.566 16.58,12.566 11.24,0 22.73,-2.406 29.42,-6.414 2.94,-1.606 5.35,-0.801 6.42,2.406 l 4.81,14.445 c 1.07,3.739 0.54,5.082 -2.94,6.68 -12.57,5.352 -25.67,8.02 -39.31,8.02 -28.61,0 -48.67,-15.77 -48.67,-38.243 0,-16.839 10.16,-30.214 27.54,-36.632 l 21.4,-8.024 c 12.03,-4.547 16.31,-8.824 16.31,-16.047 0,-8.82 -8.02,-14.437 -20.86,-14.437 -9.9,0 -19.25,2.41 -33.7,8.558 -3.2,1.336 -5.35,0.536 -6.42,-2.675 l -4.81,-14.973 c -1.07,-2.941 0,-5.082 2.94,-6.418 12.57,-6.152 27.28,-9.363 41.19,-9.363 z m -180.78,3.211 h 20.86 c 3.74,0 5.88,2.14 5.88,6.683 v 86.649 c 8.56,7.218 21.93,13.371 32.63,13.371 16.31,0 20.32,-11.235 20.32,-25.945 v -74.075 c 0,-4.812 2.14,-6.683 6.95,-6.683 h 18.99 c 4.82,0 6.96,1.871 6.96,6.683 v 79.696 c 0,29.418 -12.57,48.402 -43.06,48.402 -14.17,0 -31.29,-5.883 -42.79,-15.508 v 59.902 c 0,4.809 -2.41,6.153 -6.68,6.153 h -18.99 c -4.28,0 -7.22,-1.606 -7.22,-6.153 V 242.098 c 0,-4.547 2.4,-6.418 6.15,-6.418 z m -72.47,-3.211 c 15.24,0 27.01,2.406 39.31,8.019 4.01,1.875 4.55,3.481 3.21,8.024 l -3.75,13.375 c -0.8,2.406 -2.67,3.207 -5.88,2.144 -10.96,-4.547 -18.18,-6.152 -28.35,-6.152 -22.19,0 -35.29,16.309 -35.29,44.121 0,27.012 13.63,42.785 36.63,42.785 9.63,0 18.45,-2.137 25.94,-5.879 3.21,-1.875 5.35,-1.074 6.15,2.403 l 3.48,14.445 c 0.8,4.277 0.27,5.879 -2.68,7.223 -10.69,4.808 -23.53,7.484 -36.36,7.484 -41.19,0 -67.13,-27.281 -67.13,-70.07 0,-42.786 23.81,-67.922 64.72,-67.922 z m -150.55,25.672 c -20.07,0 -31.03,15.781 -31.03,44.394 0,26.742 11.77,42.25 32.09,42.25 19.79,0 30.75,-15.242 30.75,-43.051 0,-27.546 -11.76,-43.593 -31.81,-43.593 z m -0.28,-25.672 c 39.85,0 66.06,27.543 66.06,69.265 0,43.321 -23.8,68.727 -64.45,68.727 -40.11,0 -66.32,-27.008 -66.32,-68.461 0,-43.59 24.07,-69.531 64.71,-69.531 z m -228.38,3.211 h 20.86 c 4.54,0 6.69,1.871 6.69,6.683 v 74.879 h 75.95 v -74.879 c 0,-4.812 2.13,-6.683 7.22,-6.683 h 21.39 c 4.54,0 6.42,1.871 6.42,6.683 v 171.953 c 0,5.086 -2.14,6.692 -6.42,6.692 h -21.39 c -4.55,0 -7.22,-1.875 -7.22,-6.692 v -68.191 h -75.95 v 68.191 c 0,5.086 -2.41,6.692 -6.69,6.692 h -20.86 c -4.28,0 -7.49,-1.875 -7.49,-6.692 V 242.363 c 0,-4.812 2.41,-6.683 7.49,-6.683 v 0"
         style="fill:#231f20;fill-opacity:1;fill-rule:nonzero;stroke:none"
         transform="matrix(0.13333333,0,0,-0.13333333,0,57.453333)" />
    </g>
  </g>
</svg>
